<svg xmlns="http://www.w3.org/2000/svg" viewBox="0 0 240 240" width="240" height="240">
<defs>
  <linearGradient id="acc" x1="0" y1="0" x2="1" y2="1">
    <stop offset="0" stop-color="#5eead4"/>
    <stop offset="0.5" stop-color="#2dd4bf"/>
    <stop offset="1" stop-color="#10b981"/>
  </linearGradient>
  <linearGradient id="acc2" x1="0" y1="1" x2="1" y2="0">
    <stop offset="0" stop-color="#10b981"/>
    <stop offset="1" stop-color="#34d399"/>
  </linearGradient>
  <radialGradient id="glow" cx="0.5" cy="0.42" r="0.62">
    <stop offset="0" stop-color="#10b981" stop-opacity="0.28"/>
    <stop offset="1" stop-color="#10b981" stop-opacity="0"/>
  </radialGradient>
  <linearGradient id="bg" x1="0" y1="0" x2="0" y2="1">
    <stop offset="0" stop-color="#111c34"/>
    <stop offset="1" stop-color="#0a1120"/>
  </linearGradient>
</defs>
<rect x="0" y="0" width="240" height="240" rx="52" fill="url(#bg)"/><rect x="2" y="2" width="236" height="236" rx="50" fill="none" stroke="#1e2b45" stroke-width="2"/><rect x="0" y="0" width="240" height="240" rx="52" fill="url(#glow)"/><path d="M58 92 L58 58 L92 58" fill="none" stroke="url(#acc)" stroke-width="13" stroke-linecap="round" stroke-linejoin="round"/><path d="M148 58 L182 58 L182 92" fill="none" stroke="url(#acc)" stroke-width="13" stroke-linecap="round" stroke-linejoin="round"/><path d="M58 148 L58 182 L92 182" fill="none" stroke="url(#acc)" stroke-width="13" stroke-linecap="round" stroke-linejoin="round"/><path d="M148 182 L182 182 L182 148" fill="none" stroke="url(#acc)" stroke-width="13" stroke-linecap="round" stroke-linejoin="round"/><circle cx="120" cy="120" r="26" fill="none" stroke="#5eead4" stroke-width="6"/><circle cx="120" cy="120" r="11" fill="url(#acc)"/></svg>